{"title":"NCIS.Los.Angeles.S04E15.HDTV.Xvid-MrX","uid":8167831,"size":392912439,"categoryP":"video","categoryS":"tv_shows","magnet":"?xt=urn:btih:50e2b9e3af78f1d983a8c566998802255c72dbd2&amp;dn=NCIS.Los.Angeles.S04E15.HDTV.Xvid-MrX&amp;tr=udp%3A%2F%2Ftracker.openbittorrent.com%3A80&amp;tr=udp%3A%2F%2Fopen.demonii.com%3A1337&amp;tr=udp%3A%2F%2Ftracker.coppersurfer.tk%3A6969&amp;tr=udp%3A%2F%2Fexodus.desync.com%3A6969","seeders":4,"leechers":1,"uploader":"D.N.M","files":3,"time":1361320794,"description":"   _____       ____  ___\n  /     ______   /  /\n /   /  _  __      /\n/    Y      | /     \n____|__  /__| /___/  \n        /           _/\n\n\nNCIS.Los.Angeles.S04E15.HDTV.Xvid-MrX &lt;a href=&quot;\nhttp://www.cbs.com/shows/ncis_los_angeles/&quot; rel=&quot;nofollow&quot; target=&quot;_NEW&quot;&gt;\nhttp://www.cbs.com/shows/ncis_los_angeles/&lt;/a&gt;\n\n\n\nGeneral\nComplete name                            : NCIS.Los.Angeles.S04E15.HDTV.Xvid-MrX.avi\nFormat                                   : AVI\nFormat/Info                              : Audio Video Interleave\nFile size                                : 374 MiB\nDuration                                 : 42mn 56s\nOverall bit rate mode                    : Variable\nOverall bit rate                         : 1 217 Kbps\n\nVideo\nID                                       : 0\nFormat                                   : MPEG-4 Visual\nFormat profile                           : Advanced Simple@L5\nFormat settings, BVOP                    : 1\nFormat settings, QPel                    : No\nFormat settings, GMC                     : No warppoints\nFormat settings, Matrix                  : Default (H.263)\nMuxing mode                              : Packed bitstream\nCodec ID                                 : XVID\nCodec ID/Hint                            : XviD\nDuration                                 : 42mn 56s\nBit rate                                 : 1 062 Kbps\nWidth                                    : 640 pixels\nHeight                                   : 352 pixels\nDisplay aspect ratio                     : 16:9\nFrame rate                               : 23.976 fps\nColor space                              : YUV\nChroma subsampling                       : 4:2:0\nBit depth                                : 8 bits\nScan type                                : Progressive\nCompression mode                         : Lossy\nBits/(Pixel*Frame)                       : 0.197\nStream size                              : 326 MiB (87%)\nWriting library                          : XviD 1.2.1 (UTC 2008-12-04)\n\nAudio\nID                                       : 1\nFormat                                   : MPEG Audio\nFormat version                           : Version 1\nFormat profile                           : Layer 3\nCodec ID                                 : 55\nCodec ID/Hint                            : MP3\nDuration                                 : 42mn 56s\nBit rate mode                            : Variable\nBit rate                                 : 143 Kbps\nMinimum bit rate                         : 32.0 Kbps\nChannel(s)                               : 2 channels\nSampling rate                            : 48.0 KHz\nCompression mode                         : Lossy\nStream size                              : 43.9 MiB (12%)\nAlignment                                : Aligned on interleaves\nInterleave, duration                     : 24 ms (0.58 video frame)\nInterleave, preload duration             : 59 ms\nTitle                                    : NCIS.Los.Angeles.S04E15\nWriting library                          : LAME3.99r\nEncoding settings                        : -m s -V 4 -q 0 -lowpass 17.5 --vbr-new -b 32\n","torrent":{"xt":"urn:btih:50e2b9e3af78f1d983a8c566998802255c72dbd2","amp;dn":"NCIS.Los.Angeles.S04E15.HDTV.Xvid-MrX","amp;tr":["udp%3A%2F%2Ftracker.openbittorrent.com%3A80","udp%3A%2F%2Fopen.demonii.com%3A1337","udp%3A%2F%2Ftracker.coppersurfer.tk%3A6969","udp%3A%2F%2Fexodus.desync.com%3A6969"],"infoHash":"50e2b9e3af78f1d983a8c566998802255c72dbd2","infoHashBuffer":{"type":"Buffer","data":[80,226,185,227,175,120,241,217,131,168,197,102,153,136,2,37,92,114,219,210]},"announce":[],"urlList":[]}}